<mxfile host="65bd71144e">
    <diagram id="W3nF4Santd-eoWMZYayL" name="PÃ¡gina-1">
        <mxGraphModel dx="1114" dy="474" grid="1" gridSize="10" guides="1" tooltips="1" connect="1" arrows="1" fold="1" page="1" pageScale="1" pageWidth="827" pageHeight="1169" math="0" shadow="0">
            <root>
                <mxCell id="0"/>
                <mxCell id="1" parent="0"/>
                <mxCell id="18" style="edgeStyle=none;hachureGap=4;html=1;exitX=0.5;exitY=0;exitDx=0;exitDy=0;fontFamily=Helvetica;fontSize=10;" edge="1" parent="1" source="2" target="16">
                    <mxGeometry relative="1" as="geometry"/>
                </mxCell>
                <mxCell id="21" style="edgeStyle=none;hachureGap=4;html=1;exitX=0.75;exitY=0;exitDx=0;exitDy=0;entryX=0.25;entryY=1;entryDx=0;entryDy=0;fontFamily=Helvetica;fontSize=10;" edge="1" parent="1" source="2" target="17">
                    <mxGeometry relative="1" as="geometry"/>
                </mxCell>
                <mxCell id="2" value="DB" style="aspect=fixed;perimeter=ellipsePerimeter;html=1;align=center;shadow=0;dashed=0;spacingTop=3;image;image=img/lib/active_directory/databases.svg;hachureGap=4;fontFamily=Architects Daughter;fontSource=https%3A%2F%2Ffonts.googleapis.com%2Fcss%3Ffamily%3DArchitects%2BDaughter;fontSize=20;rounded=1;" vertex="1" parent="1">
                    <mxGeometry x="510" y="390" width="51.02" height="50" as="geometry"/>
                </mxCell>
                <mxCell id="38" style="edgeStyle=none;rounded=1;html=1;exitX=1;exitY=0.25;exitDx=0;exitDy=0;" edge="1" parent="1" source="4" target="33">
                    <mxGeometry relative="1" as="geometry"/>
                </mxCell>
                <mxCell id="43" style="edgeStyle=none;rounded=1;html=1;exitX=0;exitY=0;exitDx=0;exitDy=0;entryX=1;entryY=1;entryDx=0;entryDy=0;fontColor=#FFFF00;" edge="1" parent="1" source="4" target="6">
                    <mxGeometry relative="1" as="geometry"/>
                </mxCell>
                <mxCell id="44" style="edgeStyle=none;rounded=1;html=1;exitX=0.5;exitY=0;exitDx=0;exitDy=0;entryX=0.25;entryY=1;entryDx=0;entryDy=0;fontColor=#FFFF00;" edge="1" parent="1" source="4" target="24">
                    <mxGeometry relative="1" as="geometry"/>
                </mxCell>
                <mxCell id="4" value="Api" style="aspect=fixed;perimeter=ellipsePerimeter;html=1;align=center;shadow=0;dashed=0;spacingTop=3;image;image=img/lib/active_directory/internet_cloud.svg;hachureGap=4;fontFamily=Architects Daughter;fontSource=https%3A%2F%2Ffonts.googleapis.com%2Fcss%3Ffamily%3DArchitects%2BDaughter;fontSize=20;rounded=1;" vertex="1" parent="1">
                    <mxGeometry x="290" y="370" width="70" height="44.1" as="geometry"/>
                </mxCell>
                <mxCell id="5" value="&lt;font color=&quot;#ffff00&quot;&gt;SERVIDOR&lt;/font&gt;" style="points=[];aspect=fixed;html=1;align=center;shadow=0;dashed=0;image;image=img/lib/allied_telesis/switch/Industrial_Ethernet_IE200_POE.svg;hachureGap=4;fontFamily=Architects Daughter;fontSource=https%3A%2F%2Ffonts.googleapis.com%2Fcss%3Ffamily%3DArchitects%2BDaughter;fontSize=20;rounded=1;" vertex="1" parent="1">
                    <mxGeometry x="185.05" y="20" width="49.89" height="70" as="geometry"/>
                </mxCell>
                <mxCell id="8" style="edgeStyle=none;hachureGap=4;html=1;exitX=1;exitY=1;exitDx=0;exitDy=0;entryX=0;entryY=0;entryDx=0;entryDy=0;fontFamily=Helvetica;fontSize=12;" edge="1" parent="1" source="6" target="4">
                    <mxGeometry relative="1" as="geometry"/>
                </mxCell>
                <mxCell id="59" style="edgeStyle=none;rounded=1;html=1;exitX=0.5;exitY=0;exitDx=0;exitDy=0;entryX=0.5;entryY=1;entryDx=0;entryDy=0;fontFamily=Times New Roman;fontSize=24;fontColor=#FFFF00;" edge="1" parent="1" source="6" target="53">
                    <mxGeometry relative="1" as="geometry"/>
                </mxCell>
                <mxCell id="6" value="&lt;h4 style=&quot;margin-top: 24px; margin-bottom: 16px; line-height: 1.25; position: relative; text-align: start;&quot; id=&quot;%F0%9F%93%8D-get--pokemons&quot; dir=&quot;auto&quot; class=&quot;code-line&quot; data-line=&quot;145&quot;&gt;&lt;font color=&quot;#ffff00&quot; style=&quot;font-size: 12px;&quot; face=&quot;Helvetica&quot;&gt;&lt;strong style=&quot;&quot;&gt;GETAllApi&lt;/strong&gt;&lt;/font&gt;&lt;/h4&gt;" style="image;html=1;image=img/lib/clip_art/computers/Software_128x128.png;hachureGap=4;fontFamily=Architects Daughter;fontSource=https%3A%2F%2Ffonts.googleapis.com%2Fcss%3Ffamily%3DArchitects%2BDaughter;fontSize=20;verticalAlign=bottom;labelBackgroundColor=none;imageBackground=default;rounded=1;" vertex="1" parent="1">
                    <mxGeometry x="100" y="250" width="50" height="40" as="geometry"/>
                </mxCell>
                <mxCell id="23" style="edgeStyle=none;hachureGap=4;html=1;exitX=0.5;exitY=1;exitDx=0;exitDy=0;entryX=0;entryY=0;entryDx=0;entryDy=0;fontFamily=Helvetica;fontSize=10;" edge="1" parent="1" source="11" target="16">
                    <mxGeometry relative="1" as="geometry"/>
                </mxCell>
                <mxCell id="60" style="edgeStyle=none;rounded=1;html=1;exitX=0;exitY=0;exitDx=0;exitDy=0;entryX=0.75;entryY=1;entryDx=0;entryDy=0;fontFamily=Times New Roman;fontSize=24;fontColor=#FFFF00;" edge="1" parent="1" source="11" target="53">
                    <mxGeometry relative="1" as="geometry"/>
                </mxCell>
                <mxCell id="11" value="&lt;h4 style=&quot;margin-top: 24px; margin-bottom: 16px; line-height: 1.25; position: relative; text-align: start;&quot; id=&quot;%F0%9F%93%8D-get--pokemons&quot; dir=&quot;auto&quot; class=&quot;code-line&quot; data-line=&quot;145&quot;&gt;&lt;font color=&quot;#ffff00&quot; style=&quot;font-size: 12px;&quot; face=&quot;Helvetica&quot;&gt;&lt;strong style=&quot;&quot;&gt;GETAllDb&lt;/strong&gt;&lt;strong style=&quot;&quot;&gt;p&lt;/strong&gt;&lt;/font&gt;&lt;/h4&gt;" style="image;html=1;image=img/lib/clip_art/computers/Software_128x128.png;hachureGap=4;fontFamily=Architects Daughter;fontSource=https%3A%2F%2Ffonts.googleapis.com%2Fcss%3Ffamily%3DArchitects%2BDaughter;fontSize=20;verticalAlign=bottom;labelBackgroundColor=none;imageBackground=default;rounded=1;" vertex="1" parent="1">
                    <mxGeometry x="389" y="250" width="50" height="40" as="geometry"/>
                </mxCell>
                <mxCell id="19" style="edgeStyle=none;hachureGap=4;html=1;exitX=0.5;exitY=1;exitDx=0;exitDy=0;entryX=0;entryY=0;entryDx=0;entryDy=0;fontFamily=Helvetica;fontSize=10;" edge="1" parent="1" source="16" target="2">
                    <mxGeometry relative="1" as="geometry"/>
                </mxCell>
                <mxCell id="32" style="edgeStyle=none;hachureGap=4;html=1;exitX=1;exitY=0;exitDx=0;exitDy=0;fontFamily=Helvetica;fontSize=10;fontColor=#FFFF00;" edge="1" parent="1" source="16" target="28">
                    <mxGeometry relative="1" as="geometry"/>
                </mxCell>
                <mxCell id="42" style="edgeStyle=none;rounded=1;html=1;exitX=1;exitY=0.25;exitDx=0;exitDy=0;entryX=0;entryY=1;entryDx=0;entryDy=0;fontColor=#FFFF00;" edge="1" parent="1" source="16" target="40">
                    <mxGeometry relative="1" as="geometry">
                        <Array as="points">
                            <mxPoint x="540" y="340"/>
                        </Array>
                    </mxGeometry>
                </mxCell>
                <mxCell id="16" value="&lt;font color=&quot;#ffff00&quot; style=&quot;font-size: 10px;&quot;&gt;&lt;strong style=&quot;font-family: -apple-system, BlinkMacSystemFont, &amp;quot;Segoe WPC&amp;quot;, &amp;quot;Segoe UI&amp;quot;, system-ui, Ubuntu, &amp;quot;Droid Sans&amp;quot;, sans-serif; text-align: start;&quot;&gt;MODELO&amp;nbsp;&lt;/strong&gt;&lt;strong style=&quot;font-family: -apple-system, BlinkMacSystemFont, &amp;quot;Segoe WPC&amp;quot;, &amp;quot;Segoe UI&amp;quot;, system-ui, Ubuntu, &amp;quot;Droid Sans&amp;quot;, sans-serif; text-align: start;&quot;&gt;Pokemons&lt;/strong&gt;&lt;/font&gt;" style="aspect=fixed;perimeter=ellipsePerimeter;html=1;align=center;shadow=0;dashed=0;spacingTop=3;image;image=img/lib/active_directory/list.svg;labelBackgroundColor=none;hachureGap=4;fontFamily=Helvetica;fontSize=12;rounded=1;" vertex="1" parent="1">
                    <mxGeometry x="429.89" y="340" width="28" height="40" as="geometry"/>
                </mxCell>
                <mxCell id="20" style="edgeStyle=none;hachureGap=4;html=1;exitX=0.5;exitY=1;exitDx=0;exitDy=0;entryX=1;entryY=0;entryDx=0;entryDy=0;fontFamily=Helvetica;fontSize=10;" edge="1" parent="1" source="17" target="2">
                    <mxGeometry relative="1" as="geometry"/>
                </mxCell>
                <mxCell id="22" style="edgeStyle=none;hachureGap=4;html=1;exitX=0;exitY=0.5;exitDx=0;exitDy=0;entryX=1;entryY=0.5;entryDx=0;entryDy=0;fontFamily=Helvetica;fontSize=10;" edge="1" parent="1" source="17" target="16">
                    <mxGeometry relative="1" as="geometry"/>
                </mxCell>
                <mxCell id="51" style="edgeStyle=none;rounded=1;html=1;exitX=1;exitY=0.25;exitDx=0;exitDy=0;entryX=0.25;entryY=1;entryDx=0;entryDy=0;fontColor=#FFFF00;" edge="1" parent="1" source="17" target="50">
                    <mxGeometry relative="1" as="geometry"/>
                </mxCell>
                <mxCell id="17" value="&lt;font color=&quot;#ffff00&quot; style=&quot;font-size: 10px;&quot;&gt;&lt;font style=&quot;&quot;&gt;&lt;strong style=&quot;font-family: -apple-system, BlinkMacSystemFont, &amp;quot;Segoe WPC&amp;quot;, &amp;quot;Segoe UI&amp;quot;, system-ui, Ubuntu, &amp;quot;Droid Sans&amp;quot;, sans-serif; text-align: start;&quot;&gt;MODELO&amp;nbsp;&lt;/strong&gt;&lt;/font&gt;&lt;strong style=&quot;font-family: -apple-system, BlinkMacSystemFont, &amp;quot;Segoe WPC&amp;quot;, &amp;quot;Segoe UI&amp;quot;, system-ui, Ubuntu, &amp;quot;Droid Sans&amp;quot;, sans-serif; text-align: start;&quot;&gt;Type&lt;/strong&gt;&lt;/font&gt;" style="aspect=fixed;perimeter=ellipsePerimeter;html=1;align=center;shadow=0;dashed=0;spacingTop=3;image;image=img/lib/active_directory/list.svg;labelBackgroundColor=none;hachureGap=4;fontFamily=Helvetica;fontSize=12;rounded=1;" vertex="1" parent="1">
                    <mxGeometry x="601" y="340" width="28" height="40" as="geometry"/>
                </mxCell>
                <mxCell id="25" style="edgeStyle=none;hachureGap=4;html=1;exitX=0.25;exitY=1;exitDx=0;exitDy=0;fontFamily=Helvetica;fontSize=10;fontColor=#FFFF00;entryX=0.414;entryY=0;entryDx=0;entryDy=0;entryPerimeter=0;" edge="1" parent="1" source="24" target="4">
                    <mxGeometry relative="1" as="geometry">
                        <mxPoint x="320" y="370" as="targetPoint"/>
                    </mxGeometry>
                </mxCell>
                <mxCell id="61" style="edgeStyle=none;rounded=1;html=1;exitX=0.75;exitY=0;exitDx=0;exitDy=0;fontFamily=Times New Roman;fontSize=24;fontColor=#FFFF00;" edge="1" parent="1" source="24" target="54">
                    <mxGeometry relative="1" as="geometry"/>
                </mxCell>
                <mxCell id="24" value="&lt;h4 style=&quot;margin-top: 24px; margin-bottom: 16px; line-height: 1.25; position: relative; text-align: start;&quot; id=&quot;%F0%9F%93%8D-get--pokemons&quot; dir=&quot;auto&quot; class=&quot;code-line&quot; data-line=&quot;145&quot;&gt;&lt;font color=&quot;#ffff00&quot; style=&quot;font-size: 12px;&quot;&gt;&lt;font style=&quot;&quot; face=&quot;Helvetica&quot;&gt;&lt;strong style=&quot;&quot;&gt;GETApi&lt;/strong&gt;&lt;/font&gt;&lt;strong style=&quot;font-family: -apple-system, BlinkMacSystemFont, &amp;quot;Segoe WPC&amp;quot;, &amp;quot;Segoe UI&amp;quot;, system-ui, Ubuntu, &amp;quot;Droid Sans&amp;quot;, sans-serif; background-color: initial;&quot;&gt;id&lt;/strong&gt;&lt;/font&gt;&lt;/h4&gt;" style="image;html=1;image=img/lib/clip_art/computers/Software_128x128.png;hachureGap=4;fontFamily=Architects Daughter;fontSource=https%3A%2F%2Ffonts.googleapis.com%2Fcss%3Ffamily%3DArchitects%2BDaughter;fontSize=20;verticalAlign=bottom;labelBackgroundColor=none;imageBackground=default;rounded=1;" vertex="1" parent="1">
                    <mxGeometry x="170" y="250" width="50" height="40" as="geometry"/>
                </mxCell>
                <mxCell id="64" style="edgeStyle=none;rounded=1;html=1;exitX=0;exitY=0;exitDx=0;exitDy=0;entryX=0.5;entryY=1;entryDx=0;entryDy=0;fontFamily=Times New Roman;fontSize=24;fontColor=#FFFF00;" edge="1" parent="1" source="28" target="54">
                    <mxGeometry relative="1" as="geometry"/>
                </mxCell>
                <mxCell id="28" value="&lt;h4 style=&quot;margin-top: 24px; margin-bottom: 16px; line-height: 1.25; position: relative; text-align: start;&quot; id=&quot;%F0%9F%93%8D-get--pokemons&quot; dir=&quot;auto&quot; class=&quot;code-line&quot; data-line=&quot;145&quot;&gt;&lt;font color=&quot;#ffff00&quot; style=&quot;font-size: 12px;&quot; face=&quot;Helvetica&quot;&gt;&lt;strong style=&quot;&quot;&gt;GETIdDb&lt;/strong&gt;&lt;/font&gt;&lt;/h4&gt;" style="image;html=1;image=img/lib/clip_art/computers/Software_128x128.png;hachureGap=4;fontFamily=Architects Daughter;fontSource=https%3A%2F%2Ffonts.googleapis.com%2Fcss%3Ffamily%3DArchitects%2BDaughter;fontSize=20;verticalAlign=bottom;labelBackgroundColor=none;imageBackground=default;rounded=1;" vertex="1" parent="1">
                    <mxGeometry x="450" y="250" width="50" height="40" as="geometry"/>
                </mxCell>
                <mxCell id="46" style="edgeStyle=none;rounded=1;html=1;exitX=0.75;exitY=1;exitDx=0;exitDy=0;fontColor=#FFFF00;entryX=0.25;entryY=0;entryDx=0;entryDy=0;" edge="1" parent="1" source="33" target="4">
                    <mxGeometry relative="1" as="geometry">
                        <mxPoint x="350" y="420" as="targetPoint"/>
                    </mxGeometry>
                </mxCell>
                <mxCell id="62" style="edgeStyle=none;rounded=1;html=1;exitX=0.75;exitY=0;exitDx=0;exitDy=0;entryX=0.5;entryY=1;entryDx=0;entryDy=0;fontFamily=Times New Roman;fontSize=24;fontColor=#FFFF00;" edge="1" parent="1" source="33" target="55">
                    <mxGeometry relative="1" as="geometry"/>
                </mxCell>
                <mxCell id="33" value="&lt;h4 style=&quot;margin-top: 24px; margin-bottom: 16px; line-height: 1.25; position: relative; text-align: start;&quot; id=&quot;%F0%9F%93%8D-get--pokemons&quot; dir=&quot;auto&quot; class=&quot;code-line&quot; data-line=&quot;145&quot;&gt;&lt;font face=&quot;Helvetica&quot; color=&quot;#ffff00&quot;&gt;&lt;span style=&quot;font-size: 10px;&quot;&gt;GETAPINAME&lt;/span&gt;&lt;/font&gt;&lt;/h4&gt;" style="image;html=1;image=img/lib/clip_art/computers/Software_128x128.png;hachureGap=4;fontFamily=Architects Daughter;fontSource=https%3A%2F%2Ffonts.googleapis.com%2Fcss%3Ffamily%3DArchitects%2BDaughter;fontSize=20;verticalAlign=bottom;labelBackgroundColor=none;imageBackground=default;rounded=1;" vertex="1" parent="1">
                    <mxGeometry x="240" y="250" width="50" height="40" as="geometry"/>
                </mxCell>
                <mxCell id="35" style="edgeStyle=none;rounded=1;html=1;exitX=0.25;exitY=1;exitDx=0;exitDy=0;entryX=0.75;entryY=0;entryDx=0;entryDy=0;" edge="1" parent="1" source="34" target="16">
                    <mxGeometry relative="1" as="geometry">
                        <Array as="points">
                            <mxPoint x="520" y="290"/>
                        </Array>
                    </mxGeometry>
                </mxCell>
                <mxCell id="65" style="edgeStyle=none;rounded=1;html=1;exitX=0;exitY=0;exitDx=0;exitDy=0;entryX=0.5;entryY=1;entryDx=0;entryDy=0;fontFamily=Times New Roman;fontSize=24;fontColor=#FFFF00;" edge="1" parent="1" source="34" target="55">
                    <mxGeometry relative="1" as="geometry"/>
                </mxCell>
                <mxCell id="34" value="&lt;h4 style=&quot;margin-top: 24px; margin-bottom: 16px; line-height: 1.25; position: relative; text-align: start;&quot; id=&quot;%F0%9F%93%8D-get--pokemons&quot; dir=&quot;auto&quot; class=&quot;code-line&quot; data-line=&quot;145&quot;&gt;&lt;font face=&quot;Helvetica&quot; color=&quot;#ffff00&quot;&gt;&lt;span style=&quot;font-size: 10px;&quot;&gt;GETAPINAME&lt;/span&gt;&lt;/font&gt;&lt;/h4&gt;" style="image;html=1;image=img/lib/clip_art/computers/Software_128x128.png;hachureGap=4;fontFamily=Architects Daughter;fontSource=https%3A%2F%2Ffonts.googleapis.com%2Fcss%3Ffamily%3DArchitects%2BDaughter;fontSize=20;verticalAlign=bottom;labelBackgroundColor=none;imageBackground=default;rounded=1;" vertex="1" parent="1">
                    <mxGeometry x="520" y="250" width="50" height="40" as="geometry"/>
                </mxCell>
                <mxCell id="41" style="edgeStyle=none;rounded=1;html=1;exitX=0;exitY=1;exitDx=0;exitDy=0;entryX=1;entryY=0.25;entryDx=0;entryDy=0;fontColor=#FFFF00;" edge="1" parent="1" source="40" target="16">
                    <mxGeometry relative="1" as="geometry">
                        <Array as="points">
                            <mxPoint x="550" y="340"/>
                        </Array>
                    </mxGeometry>
                </mxCell>
                <mxCell id="47" style="edgeStyle=none;rounded=1;html=1;exitX=0.5;exitY=1;exitDx=0;exitDy=0;fontColor=#FFFF00;" edge="1" parent="1" source="40" target="17">
                    <mxGeometry relative="1" as="geometry"/>
                </mxCell>
                <mxCell id="66" style="edgeStyle=none;rounded=1;html=1;exitX=0.5;exitY=0;exitDx=0;exitDy=0;entryX=0.65;entryY=1.1;entryDx=0;entryDy=0;entryPerimeter=0;fontFamily=Times New Roman;fontSize=24;fontColor=#FFFF00;" edge="1" parent="1" source="40" target="56">
                    <mxGeometry relative="1" as="geometry"/>
                </mxCell>
                <mxCell id="40" value="&lt;h4 style=&quot;margin-top: 24px; margin-bottom: 16px; line-height: 1.25; position: relative; text-align: start;&quot; id=&quot;%F0%9F%93%8D-get--pokemons&quot; dir=&quot;auto&quot; class=&quot;code-line&quot; data-line=&quot;145&quot;&gt;&lt;font face=&quot;Helvetica&quot; color=&quot;#ffff00&quot;&gt;&lt;span style=&quot;font-size: 10px;&quot;&gt;POST&lt;/span&gt;&lt;/font&gt;&lt;/h4&gt;" style="image;html=1;image=img/lib/clip_art/computers/Software_128x128.png;hachureGap=4;fontFamily=Architects Daughter;fontSource=https%3A%2F%2Ffonts.googleapis.com%2Fcss%3Ffamily%3DArchitects%2BDaughter;fontSize=20;verticalAlign=bottom;labelBackgroundColor=none;imageBackground=default;rounded=1;" vertex="1" parent="1">
                    <mxGeometry x="590" y="250" width="50" height="40" as="geometry"/>
                </mxCell>
                <mxCell id="45" style="edgeStyle=none;rounded=1;html=1;exitX=1;exitY=0.25;exitDx=0;exitDy=0;entryX=1;entryY=0.5;entryDx=0;entryDy=0;fontColor=#FFFF00;" edge="1" parent="1" source="4" target="4">
                    <mxGeometry relative="1" as="geometry"/>
                </mxCell>
                <mxCell id="49" style="edgeStyle=none;rounded=1;html=1;exitX=0.25;exitY=1;exitDx=0;exitDy=0;fontColor=#FFFF00;" edge="1" parent="1" source="48" target="4">
                    <mxGeometry relative="1" as="geometry"/>
                </mxCell>
                <mxCell id="63" style="edgeStyle=none;rounded=1;html=1;exitX=1;exitY=0;exitDx=0;exitDy=0;entryX=0;entryY=1;entryDx=0;entryDy=0;fontFamily=Times New Roman;fontSize=24;fontColor=#FFFF00;" edge="1" parent="1" source="48" target="57">
                    <mxGeometry relative="1" as="geometry"/>
                </mxCell>
                <mxCell id="48" value="&lt;span style=&quot;color: rgba(0, 0, 0, 0); font-family: monospace; font-size: 0px; text-align: start;&quot;&gt;%3CmxGraphModel%3E%3Croot%3E%3CmxCell%20id%3D%220%22%2F%3E%3CmxCell%20id%3D%221%22%20parent%3D%220%22%2F%3E%3CmxCell%20id%3D%222%22%20value%3D%22%26lt%3Bh4%20style%3D%26quot%3Bmargin-top%3A%2024px%3B%20margin-bottom%3A%2016px%3B%20line-height%3A%201.25%3B%20position%3A%20relative%3B%20text-align%3A%20start%3B%26quot%3B%20id%3D%26quot%3B%25F0%259F%2593%258D-get--pokemons%26quot%3B%20dir%3D%26quot%3Bauto%26quot%3B%20class%3D%26quot%3Bcode-line%26quot%3B%20data-line%3D%26quot%3B145%26quot%3B%26gt%3B%26lt%3Bfont%20face%3D%26quot%3BHelvetica%26quot%3B%20color%3D%26quot%3B%23ffff00%26quot%3B%26gt%3B%26lt%3Bspan%20style%3D%26quot%3Bfont-size%3A%2010px%3B%26quot%3B%26gt%3BGETAPINAME%26lt%3B%2Fspan%26gt%3B%26lt%3B%2Ffont%26gt%3B%26lt%3B%2Fh4%26gt%3B%22%20style%3D%22image%3Bhtml%3D1%3Bimage%3Dimg%2Flib%2Fclip_art%2Fcomputers%2FSoftware_128x128.png%3BhachureGap%3D4%3BfontFamily%3DArchitects%20Daughter%3BfontSource%3Dhttps%253A%252F%252Ffonts.googleapis.com%252Fcss%253Ffamily%253DArchitects%252BDaughter%3BfontSize%3D20%3BverticalAlign%3Dbottom%3BlabelBackgroundColor%3Dnone%3BimageBackground%3Ddefault%3Brounded%3D1%3B%22%20vertex%3D%221%22%20parent%3D%221%22%3E%3CmxGeometry%20x%3D%22230%22%20y%3D%22250%22%20width%3D%2250%22%20height%3D%2240%22%20as%3D%22geometry%22%2F%3E%3C%2FmxCell%3E%3C%2Froot%3E%3C%2FmxGraphModel%3E&lt;/span&gt;&lt;h4 style=&quot;margin-top: 24px; margin-bottom: 16px; line-height: 1.25; position: relative; text-align: start;&quot; id=&quot;%F0%9F%93%8D-get--pokemons&quot; dir=&quot;auto&quot; class=&quot;code-line&quot; data-line=&quot;145&quot;&gt;&lt;font face=&quot;Helvetica&quot; color=&quot;#ffff00&quot;&gt;&lt;span style=&quot;font-size: 10px;&quot;&gt;GETTYPEAPI&lt;/span&gt;&lt;/font&gt;&lt;/h4&gt;" style="image;html=1;image=img/lib/clip_art/computers/Software_128x128.png;hachureGap=4;fontFamily=Architects Daughter;fontSource=https%3A%2F%2Ffonts.googleapis.com%2Fcss%3Ffamily%3DArchitects%2BDaughter;fontSize=20;verticalAlign=bottom;labelBackgroundColor=none;imageBackground=default;rounded=1;" vertex="1" parent="1">
                    <mxGeometry x="310" y="250" width="50" height="40" as="geometry"/>
                </mxCell>
                <mxCell id="52" style="edgeStyle=none;rounded=1;html=1;exitX=0.25;exitY=1;exitDx=0;exitDy=0;entryX=1;entryY=0.25;entryDx=0;entryDy=0;fontColor=#FFFF00;" edge="1" parent="1" source="50" target="17">
                    <mxGeometry relative="1" as="geometry"/>
                </mxCell>
                <mxCell id="50" value="&lt;span style=&quot;color: rgba(0, 0, 0, 0); font-family: monospace; font-size: 0px; text-align: start;&quot;&gt;%3CmxGraphModel%3E%3Croot%3E%3CmxCell%20id%3D%220%22%2F%3E%3CmxCell%20id%3D%221%22%20parent%3D%220%22%2F%3E%3CmxCell%20id%3D%222%22%20value%3D%22%26lt%3Bh4%20style%3D%26quot%3Bmargin-top%3A%2024px%3B%20margin-bottom%3A%2016px%3B%20line-height%3A%201.25%3B%20position%3A%20relative%3B%20text-align%3A%20start%3B%26quot%3B%20id%3D%26quot%3B%25F0%259F%2593%258D-get--pokemons%26quot%3B%20dir%3D%26quot%3Bauto%26quot%3B%20class%3D%26quot%3Bcode-line%26quot%3B%20data-line%3D%26quot%3B145%26quot%3B%26gt%3B%26lt%3Bfont%20face%3D%26quot%3BHelvetica%26quot%3B%20color%3D%26quot%3B%23ffff00%26quot%3B%26gt%3B%26lt%3Bspan%20style%3D%26quot%3Bfont-size%3A%2010px%3B%26quot%3B%26gt%3BGETAPINAME%26lt%3B%2Fspan%26gt%3B%26lt%3B%2Ffont%26gt%3B%26lt%3B%2Fh4%26gt%3B%22%20style%3D%22image%3Bhtml%3D1%3Bimage%3Dimg%2Flib%2Fclip_art%2Fcomputers%2FSoftware_128x128.png%3BhachureGap%3D4%3BfontFamily%3DArchitects%20Daughter%3BfontSource%3Dhttps%253A%252F%252Ffonts.googleapis.com%252Fcss%253Ffamily%253DArchitects%252BDaughter%3BfontSize%3D20%3BverticalAlign%3Dbottom%3BlabelBackgroundColor%3Dnone%3BimageBackground%3Ddefault%3Brounded%3D1%3B%22%20vertex%3D%221%22%20parent%3D%221%22%3E%3CmxGeometry%20x%3D%22230%22%20y%3D%22250%22%20width%3D%2250%22%20height%3D%2240%22%20as%3D%22geometry%22%2F%3E%3C%2FmxCell%3E%3C%2Froot%3E%3C%2FmxGraphModel%3E&lt;/span&gt;&lt;h4 style=&quot;margin-top: 24px; margin-bottom: 16px; line-height: 1.25; position: relative; text-align: start;&quot; id=&quot;%F0%9F%93%8D-get--pokemons&quot; dir=&quot;auto&quot; class=&quot;code-line&quot; data-line=&quot;145&quot;&gt;&lt;font face=&quot;Helvetica&quot; color=&quot;#ffff00&quot;&gt;&lt;span style=&quot;font-size: 10px;&quot;&gt;GETTYPE&lt;/span&gt;&lt;/font&gt;&lt;/h4&gt;" style="image;html=1;image=img/lib/clip_art/computers/Software_128x128.png;hachureGap=4;fontFamily=Architects Daughter;fontSource=https%3A%2F%2Ffonts.googleapis.com%2Fcss%3Ffamily%3DArchitects%2BDaughter;fontSize=20;verticalAlign=bottom;labelBackgroundColor=none;imageBackground=default;rounded=1;" vertex="1" parent="1">
                    <mxGeometry x="650" y="250" width="50" height="40" as="geometry"/>
                </mxCell>
                <mxCell id="68" style="edgeStyle=none;rounded=1;html=1;exitX=0.5;exitY=0;exitDx=0;exitDy=0;fontFamily=Times New Roman;fontSize=24;fontColor=#FFFF00;entryX=1;entryY=0.5;entryDx=0;entryDy=0;" edge="1" parent="1" source="53" target="77">
                    <mxGeometry relative="1" as="geometry">
                        <mxPoint x="350" y="100" as="targetPoint"/>
                    </mxGeometry>
                </mxCell>
                <mxCell id="53" value="&lt;font style=&quot;font-size: 11px;&quot;&gt;&lt;b&gt;ALLPOKEMONS&lt;/b&gt;&lt;/font&gt;" style="shape=parallelogram;perimeter=parallelogramPerimeter;whiteSpace=wrap;html=1;fixedSize=1;rounded=1;fontColor=#FFFF00;" vertex="1" parent="1">
                    <mxGeometry x="150" y="180" width="120" height="20" as="geometry"/>
                </mxCell>
                <mxCell id="69" style="edgeStyle=none;rounded=1;html=1;exitX=0.75;exitY=0;exitDx=0;exitDy=0;fontFamily=Times New Roman;fontSize=24;fontColor=#FFFF00;entryX=1;entryY=0.5;entryDx=0;entryDy=0;" edge="1" parent="1" source="54" target="77">
                    <mxGeometry relative="1" as="geometry">
                        <mxPoint x="340" y="110" as="targetPoint"/>
                        <Array as="points">
                            <mxPoint x="340" y="150"/>
                        </Array>
                    </mxGeometry>
                </mxCell>
                <mxCell id="54" value="&lt;h4 style=&quot;margin-top: 24px; margin-bottom: 16px; line-height: 245%; position: relative; text-align: start;&quot; id=&quot;%F0%9F%93%8D-get--pokemonsidpokemon&quot; dir=&quot;auto&quot; class=&quot;code-line&quot; data-line=&quot;149&quot;&gt;&lt;font style=&quot;font-size: 12px;&quot;&gt;id&lt;/font&gt;&lt;/h4&gt;" style="shape=parallelogram;perimeter=parallelogramPerimeter;whiteSpace=wrap;html=1;fixedSize=1;rounded=1;fontColor=#FFFF00;" vertex="1" parent="1">
                    <mxGeometry x="260" y="180" width="70" height="20" as="geometry"/>
                </mxCell>
                <mxCell id="70" style="edgeStyle=none;rounded=1;html=1;exitX=0.5;exitY=0;exitDx=0;exitDy=0;fontFamily=Times New Roman;fontSize=24;fontColor=#FFFF00;entryX=1;entryY=0.5;entryDx=0;entryDy=0;" edge="1" parent="1" source="55" target="77">
                    <mxGeometry relative="1" as="geometry">
                        <mxPoint x="370" y="120" as="targetPoint"/>
                        <Array as="points">
                            <mxPoint x="360" y="160"/>
                        </Array>
                    </mxGeometry>
                </mxCell>
                <mxCell id="55" value="&lt;b&gt;NAME&lt;/b&gt;" style="shape=parallelogram;perimeter=parallelogramPerimeter;whiteSpace=wrap;html=1;fixedSize=1;rounded=1;fontColor=#FFFF00;" vertex="1" parent="1">
                    <mxGeometry x="320" y="180" width="100" height="20" as="geometry"/>
                </mxCell>
                <mxCell id="71" style="edgeStyle=none;rounded=1;html=1;exitX=0.5;exitY=0;exitDx=0;exitDy=0;fontFamily=Times New Roman;fontSize=24;fontColor=#FFFF00;entryX=1;entryY=0.5;entryDx=0;entryDy=0;startArrow=none;" edge="1" parent="1" source="80" target="77">
                    <mxGeometry relative="1" as="geometry">
                        <mxPoint x="330" y="120" as="targetPoint"/>
                        <Array as="points"/>
                    </mxGeometry>
                </mxCell>
                <mxCell id="74" value="" style="edgeStyle=none;rounded=1;html=1;fontFamily=Times New Roman;fontSize=24;fontColor=#FFFF00;" edge="1" parent="1" source="56" target="58">
                    <mxGeometry relative="1" as="geometry"/>
                </mxCell>
                <mxCell id="56" value="&lt;h4 style=&quot;margin-top: 24px; margin-bottom: 16px; line-height: 345%; position: relative; font-family: -apple-system, BlinkMacSystemFont, &amp;quot;Segoe WPC&amp;quot;, &amp;quot;Segoe UI&amp;quot;, system-ui, Ubuntu, &amp;quot;Droid Sans&amp;quot;, sans-serif;&quot; id=&quot;%F0%9F%93%8D-post--pokemons&quot; dir=&quot;auto&quot; class=&quot;code-line&quot; data-line=&quot;163&quot;&gt;&lt;font style=&quot;font-size: 12px;&quot;&gt;POST&lt;/font&gt;&lt;/h4&gt;" style="shape=parallelogram;perimeter=parallelogramPerimeter;whiteSpace=wrap;html=1;fixedSize=1;rounded=1;fontColor=#FFFF00;align=center;" vertex="1" parent="1">
                    <mxGeometry x="414" y="180" width="100" height="20" as="geometry"/>
                </mxCell>
                <mxCell id="67" style="edgeStyle=none;rounded=1;html=1;exitX=0.75;exitY=1;exitDx=0;exitDy=0;entryX=0.5;entryY=0;entryDx=0;entryDy=0;fontFamily=Times New Roman;fontSize=24;fontColor=#FFFF00;" edge="1" parent="1" source="57" target="50">
                    <mxGeometry relative="1" as="geometry"/>
                </mxCell>
                <mxCell id="72" style="edgeStyle=none;rounded=1;html=1;exitX=0.5;exitY=0;exitDx=0;exitDy=0;fontFamily=Times New Roman;fontSize=24;fontColor=#FFFF00;entryX=1;entryY=0.5;entryDx=0;entryDy=0;" edge="1" parent="1" source="57" target="77">
                    <mxGeometry relative="1" as="geometry">
                        <mxPoint x="360" y="110" as="targetPoint"/>
                        <Array as="points">
                            <mxPoint x="420" y="150"/>
                        </Array>
                    </mxGeometry>
                </mxCell>
                <mxCell id="57" value="&lt;h4 style=&quot;margin-top: 24px; margin-bottom: 16px; line-height: 0%; font-size: 14px; position: relative; font-family: -apple-system, BlinkMacSystemFont, &amp;quot;Segoe WPC&amp;quot;, &amp;quot;Segoe UI&amp;quot;, system-ui, Ubuntu, &amp;quot;Droid Sans&amp;quot;, sans-serif; text-align: start;&quot; id=&quot;%F0%9F%93%8D-get--types&quot; dir=&quot;auto&quot; class=&quot;code-line&quot; data-line=&quot;169&quot;&gt;types&lt;/h4&gt;" style="shape=parallelogram;perimeter=parallelogramPerimeter;whiteSpace=wrap;html=1;fixedSize=1;rounded=1;fontColor=#FFFF00;" vertex="1" parent="1">
                    <mxGeometry x="510" y="180" width="100" height="25" as="geometry"/>
                </mxCell>
                <mxCell id="58" value="&lt;font style=&quot;font-size: 24px; background-color: rgb(41, 41, 41);&quot; face=&quot;Times New Roman&quot;&gt;CONTROLLER&lt;/font&gt;" style="text;html=1;align=center;verticalAlign=middle;resizable=0;points=[];autosize=1;strokeColor=none;fillColor=none;fontSize=12;fontFamily=Helvetica;fontColor=#FFFF00;" vertex="1" parent="1">
                    <mxGeometry x="277.89" y="205" width="180" height="40" as="geometry"/>
                </mxCell>
                <mxCell id="73" value="&lt;font style=&quot;font-size: 18px;&quot;&gt;ERROR&lt;/font&gt;" style="shape=mxgraph.mockup.markup.redX;fillColor=#ff0000;html=1;shadow=0;strokeColor=none;rounded=1;labelBackgroundColor=#292929;fontFamily=Times New Roman;fontSize=24;fontColor=#FFFF00;" vertex="1" parent="1">
                    <mxGeometry x="464" y="30" width="50" height="50" as="geometry"/>
                </mxCell>
                <mxCell id="78" style="edgeStyle=none;rounded=1;html=1;exitX=0;exitY=0.25;exitDx=0;exitDy=0;fontFamily=Times New Roman;fontSize=18;fontColor=#FFFF00;" edge="1" parent="1" source="77" target="73">
                    <mxGeometry relative="1" as="geometry"/>
                </mxCell>
                <mxCell id="79" style="edgeStyle=none;rounded=1;html=1;exitX=0;exitY=0.75;exitDx=0;exitDy=0;fontFamily=Times New Roman;fontSize=18;fontColor=#FFFF00;" edge="1" parent="1" source="77" target="5">
                    <mxGeometry relative="1" as="geometry"/>
                </mxCell>
                <mxCell id="77" value="" style="triangle;whiteSpace=wrap;html=1;rounded=1;labelBackgroundColor=none;fontFamily=Times New Roman;fontSize=24;fontColor=#FFFF00;rotation=90;" vertex="1" parent="1">
                    <mxGeometry x="337.89" y="50" width="60" height="80" as="geometry"/>
                </mxCell>
                <mxCell id="81" value="" style="edgeStyle=none;rounded=1;html=1;exitX=0.5;exitY=0;exitDx=0;exitDy=0;fontFamily=Times New Roman;fontSize=24;fontColor=#FFFF00;entryX=1;entryY=0.5;entryDx=0;entryDy=0;endArrow=none;" edge="1" parent="1" source="56" target="80">
                    <mxGeometry relative="1" as="geometry">
                        <mxPoint x="464" y="180" as="sourcePoint"/>
                        <mxPoint x="370" y="130" as="targetPoint"/>
                        <Array as="points">
                            <mxPoint x="380" y="150"/>
                        </Array>
                    </mxGeometry>
                </mxCell>
                <mxCell id="80" value="&lt;span style=&quot;background-color: rgb(41, 41, 41);&quot;&gt;&lt;font style=&quot;font-size: 24px;&quot;&gt;HANDLERS&lt;/font&gt;&lt;/span&gt;" style="text;html=1;align=center;verticalAlign=middle;resizable=0;points=[];autosize=1;strokeColor=none;fillColor=none;fontSize=18;fontFamily=Times New Roman;fontColor=#FFFF00;" vertex="1" parent="1">
                    <mxGeometry x="292.89" y="140" width="150" height="40" as="geometry"/>
                </mxCell>
            </root>
        </mxGraphModel>
    </diagram>
</mxfile>